<?xml version="1.0" encoding="UTF-8" standalone="no"?>
<svg
   xmlns:dc="http://purl.org/dc/elements/1.1/"
   xmlns:cc="http://creativecommons.org/ns#"
   xmlns:rdf="http://www.w3.org/1999/02/22-rdf-syntax-ns#"
   xmlns:svg="http://www.w3.org/2000/svg"
   xmlns="http://www.w3.org/2000/svg"
   version="1.1"
   id="svg46"
   width="335.25192"
   height="154.12056"
   viewBox="0 0 335.25192 154.12056">
  <metadata
     id="metadata52">
    <rdf:RDF>
      <cc:Work
         rdf:about="">
        <dc:format>image/svg+xml</dc:format>
        <dc:type
           rdf:resource="http://purl.org/dc/dcmitype/StillImage" />
        <dc:title></dc:title>
      </cc:Work>
    </rdf:RDF>
  </metadata>
  <defs
     id="defs50">
    <clipPath
       clipPathUnits="userSpaceOnUse"
       id="clipPath60">
      <rect
         style="fill:#0000ff;fill-opacity:0;stroke:#00fb00"
         id="rect62"
         width="335.25192"
         height="154.12056"
         x="57.993816"
         y="5.5610509" />
    </clipPath>
    <clipPath
       clipPathUnits="userSpaceOnUse"
       id="clipPath68">
      <rect
         style="fill:#0000ff;fill-opacity:0;stroke:#00fb00"
         id="rect70"
         width="335.25192"
         height="154.12056"
         x="57.993816"
         y="5.5610509" />
    </clipPath>
    <clipPath
       clipPathUnits="userSpaceOnUse"
       id="clipPath80">
      <rect
         style="fill:#0000ff;fill-opacity:0;stroke:#00fb00"
         id="rect82"
         width="335.25192"
         height="154.12056"
         x="57.993816"
         y="5.5610509" />
    </clipPath>
    <clipPath
       clipPathUnits="userSpaceOnUse"
       id="clipPath80-5">
      <rect
         style="fill:#0000ff;fill-opacity:0;stroke:#00fb00"
         id="rect82-6"
         width="335.25192"
         height="154.12056"
         x="57.993816"
         y="5.5610509" />
    </clipPath>
  </defs>
  <g
     id="layer1"
     style="display:inline">
    <path
       style="fill:#00d000;fill-opacity:0.00404861;stroke:#000000;stroke-opacity:1"
       d="m 249.48757,155.79366 c -10.03065,-0.87857 -22.33832,-3.76896 -24.66493,-5.79242 -0.9625,-0.83709 -1.75,-2.57724 -1.75,-3.867 0,-1.28975 -0.75131,-2.75153 -1.0485,-2.75153 -0.29718,0 -8.09587,2.43152 -17.9515,4.90652 -20.13687,5.05688 -23.66778,5.33727 -31.69272,2.51673 -7.45852,-2.62146 -9.75544,-4.97297 -11.21111,-11.4776 -0.71006,-3.17289 -2.59895,-7.21966 -4.58234,-9.81722 -2.81616,-3.68822 -4.33699,-4.68333 -9.19407,-6.01592 -11.81387,-3.24125 -19.43505,-5.80775 -46.81976,-6.06584 l -26.156058,-0.24651 c 0.02332,-10.89133 -0.217612,-22.054385 -0.272028,-32.803104 -0.04248,-8.391531 0.02872,-16.530527 0.428089,-24.090533 l 19.5,-0.5 c 18.925097,-0.485259 19.780077,-0.598408 28.999997,-3.837899 5.225,-1.835845 11.3,-4.488452 13.5,-5.894683 5.48427,-3.505524 20.62678,-15.073111 28.5,-21.77157 3.575,-3.041576 9.5809,-7.375888 13.61642,-9.680884 2.42857,-1.387142 4.74072,-3.12355 7.86783,-4.045004 7.33368,-0.880674 8.58067,-0.945113 15.71428,-0.895694 12.02777,0.08332 16.70308,0.07704 21.80147,1.536796 8.52062,2.439604 10.25525,4.284967 10.88149,7.289761 0.29628,1.421573 0.58666,2.299177 1.15885,2.299177 0.57218,0 9.10403,-2.025 18.95966,-4.5 9.85563,-2.475 19.24008,-4.5 20.85433,-4.5 4.74702,0 15.5849,3.774146 17.8923,6.230756 1.17229,1.248084 2.55787,4.167702 3.07909,6.48804 0.98365,4.379021 5.0904,12.171799 7.36664,13.978608 1.8548,1.472281 10.1886,4.001417 17.80764,5.404251 3.575,0.658237 19.325,1.467143 35,1.79757 l 27.65943,1.161155 -1.23716,57.439617 -19.46113,0.55339 c -18.83618,0.53562 -19.75016,0.65883 -28.46114,3.83687 -4.95,1.80592 -10.893,4.37693 -13.20668,5.71338 -5.12295,2.95916 -19.40568,13.7496 -28.45982,21.50108 -10.46752,8.9615 -18.69296,14.12351 -24.79401,15.55988 -5.94999,1.4008 -7.25367,1.42338 -19.62456,0.33983 z m -40.46132,-24.01468 c 32.09559,-1.50488 31.63363,-1.45051 35.80537,-4.21428 6.69898,-4.43804 13.52995,-16.44001 15.42704,-38.188262 0.46135,-5.288926 -0.7834,-7.192269 -3.34052,-12.511152 -3.50789,-7.296525 -9.67857,-12.660007 -17.47767,-12.660007 -5.67868,0 -8.38115,2.174935 -11.16016,5.193721 -1.76877,1.921378 -2.90773,4.747944 -2.70787,7.351844 0.17461,2.274849 2.19551,4.000314 3.31816,5.986541 0.87496,1.548023 1.83602,3.048117 2.6635,4.622034 0.8107,1.541998 1.95007,3.000818 2.25106,4.716741 0.20257,1.15484 0.0495,2.396124 -0.34412,3.500542 -0.44222,1.240725 -1.29531,2.32192 -2.18789,3.290556 -1.38866,1.506982 -2.98411,2.909082 -4.82459,3.810202 -2.65932,1.30203 -5.66362,2.05868 -8.62372,2.12999 -3.42743,0.0826 -8.00914,-1.21485 -10.09239,-1.98259 -4.67929,-2.67042 -5.52265,-1.95651 -9.7067,-5.518365 -6.45876,-5.498291 -15.07044,-13.356863 -18.2694,-16.258608 -9.3645,-8.494458 -14.68371,-10.161562 -14.68371,-4.602055 0,3.709762 -2.56109,7.880976 -5.80285,9.451004 l -2.90666,1.407741 3.39829,11.992303 c 1.86907,6.59576 4.06931,14.36523 4.88943,17.26548 1.62276,5.73865 4.46126,8.85452 12.239,13.43495 5.39703,3.17839 3.99921,3.1009 32.1364,1.78162 z m 13.40803,-28.54185 c 4.05238,-0.94026 9.63285,-5.244764 10.43918,-9.994119 0.52941,-3.118273 -2.10683,-6.181379 -4.30431,-8.456242 -1.94786,-2.016452 -3.51074,-4.215343 -3.90209,-6.7989 -0.35194,-2.323336 0.69339,-5.240219 1.54087,-6.879059 0.84747,-1.638839 2.89895,-3.341793 2.89895,-3.341793 0.95128,-1.162317 2.30117,-1.828188 3.45054,-2.495265 1.88191,-1.877265 6.58687,-1.62295 13.62109,-1.220625 1.22872,0.07028 7.48008,1.536229 14.6014,7.560996 25.60937,21.66601 30.13785,24.478509 33.29273,20.67711 0.68469,-0.825 2.08979,-1.5 3.12244,-1.5 1.16564,0 1.87756,-0.707212 1.87756,-1.865141 0,-1.025828 0.88599,-2.9915 1.96887,-4.368159 l 1.96888,-2.503018 -5.97143,-18.539871 -5.97143,-18.539871 -5.17273,-3.716234 c -8.35957,-6.005756 -9.98424,-6.411374 -21.83974,-5.452543 -18.01841,1.457266 -36.2428,2.996939 -42.36356,3.579052 -7.76943,0.738909 -11.7443,3.155876 -14.99904,10.465543 -2.56371,5.757722 -2.67628,6.74082 -3.31614,11.409198 -0.57485,4.010683 -0.18091,3.040885 -0.8538,8.730946 -1.45992,12.588083 -3.37594,20.284521 0.002,25.5491 4.4972,7.008275 11.78384,9.584275 19.90943,7.698895 z"
       id="path64-4"
       clip-path="url(#clipPath80-5)"
       transform="translate(-58.190142,-4.8071166)" />
    <circle
       style="fill:#00d000;fill-opacity:0.00404861;stroke:#000000;stroke-width:0.939663;stroke-opacity:1"
       id="path950"
       cx="95.139114"
       cy="72.443718"
       r="8.0301685" />
    <circle
       style="display:inline;fill:#00d000;fill-opacity:0.00404861;stroke:#000000;stroke-width:0.939663;stroke-opacity:1"
       id="path950-0"
       cx="252.18565"
       cy="85.192368"
       r="8.0301685" />
    <circle
       style="display:inline;fill:#00d000;fill-opacity:0.00404861;stroke:#000000;stroke-width:0.829115;stroke-opacity:1"
       id="path950-2"
       cx="169.35556"
       cy="44.951172"
       r="7.0854425" />
    <circle
       style="display:inline;fill:#00d000;fill-opacity:0.00404861;stroke:#000000;stroke-width:0.829115;stroke-opacity:1"
       id="path950-2-3"
       cx="178.48108"
       cy="112.63641"
       r="7.0854425" />
    <path
       style="fill:none;stroke:#000000;stroke-width:1px;stroke-linecap:butt;stroke-linejoin:miter;stroke-opacity:1"
       d="m 177.92712,20.049996 c -7.66666,3 -14.04302,3.096281 -20.59379,5.950004 -1.78191,0.776257 -3.49836,1.765963 -5,3 -2.43104,1.997812 -4.57723,4.388993 -6.33333,7 -1.85823,2.762861 -3.31846,5.828809 -4.33333,9 -0.99663,3.114176 -1.38788,6.40881 -1.66667,9.666667 -0.31264,3.653314 -0.0509,7.333687 0,11 0.0556,4.001157 -0.006,8.012848 0.33333,12 0.19972,2.348546 0.39988,4.720655 1,7 0.69871,2.653803 1.62967,5.289053 3,7.666666 1.11489,1.934403 4.1736,5.238809 4.1736,5.238809"
       id="path1012" />
    <path
       style="fill:none;stroke:#000000;stroke-width:1px;stroke-linecap:butt;stroke-linejoin:miter;stroke-opacity:1"
       d="m 164.23469,138.63765 c 0,0 8.2946,-3.29755 12.43198,-4.97098 2.44839,-0.99029 4.99231,-1.77733 7.33333,-3 1.99422,-1.04154 3.95782,-2.20326 5.66667,-3.66667 2.19929,-1.88341 4.29003,-4.00038 5.78467,-6.48033 1.25806,-2.0874 2.18593,-4.44295 2.54866,-6.853 0.36629,-2.43366 -0.42267,-7.37111 -0.42267,-7.37111"
       id="path1014" />
    <path
       style="fill:none;stroke:#000000;stroke-width:1px;stroke-linecap:butt;stroke-linejoin:miter;stroke-opacity:1"
       d="m 151.18896,30.065987 c 0,0 -3.92961,3.263136 -5.15417,5.440512 -1.6004,2.845647 -2.11057,6.218003 -2.57708,9.44931 -0.20051,1.388829 -0.26375,2.816831 -0.0863,4.208799 0.1918,1.504933 1.23171,4.381483 1.23171,4.381483 l 0.68634,2.263427"
       id="path1018" />
    <path
       style="fill:none;stroke:#000000;stroke-width:1px;stroke-linecap:butt;stroke-linejoin:miter;stroke-opacity:1"
       d="m 194.0394,123.04905 c 0,0 4.14817,-4.63056 5.6885,-7.30485 0.74347,-1.2908 1.25079,-2.71542 1.6721,-4.1442 0.49922,-1.69302 0.7936,-3.44702 1,-5.2 0.35115,-2.98236 0.36218,-5.99728 0.4,-9 0.0437,-3.467033 -0.093,-6.934345 -0.2,-10.4 -0.0968,-3.134674 0.0159,-6.291529 -0.4,-9.4 -0.39891,-2.98157 -0.91304,-5.995111 -2,-8.8 -0.82455,-2.12774 -3.37733,-5.954666 -3.37733,-5.954666"
       id="path1022" />
    <path
       id="path1098"
       style="fill:#4d64ae;fill-opacity:1;stroke:#000000;stroke-width:0.774;stroke-miterlimit:4;stroke-dasharray:none;stroke-opacity:1"
       d="m 146.11133,9.6757812 c -6.24689,-0.014507 -12.50592,0.1070454 -14.5918,0.3730468 -2.56996,0.327734 -4.029,0.759237 -6.16992,1.826172 -4.18174,2.083976 -13.03177,8.100721 -18.32227,12.457031 C 94.598748,34.56599 81.101841,44.618404 76.740234,46.888672 71.292423,49.724321 61.492366,53.330313 56.349609,54.392578 53.511825,54.97874 43.079798,55.520981 26.970703,55.919922 l -9.947265,0.246094 -0.265626,7.884765 c -0.146005,4.336768 -0.14513,16.829354 0.002,27.759766 l 0.267578,19.873043 18.732422,0.23047 c 26.291826,0.3236 34.076316,1.02484 46.371093,4.17383 11.929571,3.05546 13.511195,3.80074 16.513672,7.79492 2.346383,3.12137 3.715563,5.94319 4.886723,10.06836 1.19131,4.19614 1.96419,5.79621 3.57227,7.4043 1.45682,1.45681 5.5824,3.48505 9.57421,4.70508 2.5069,0.76618 3.3756,1.37072 7.44915,1.25816 5.44129,-0.15036 7.38035,-0.91232 25.89265,-5.61559 12.53414,-3.18445 13.60227,-3.42514 22.81836,-7.19531 5.2442,-2.14534 10.37886,-4.32953 11.41016,-4.85351 4.81681,-2.44733 10.04458,-6.75635 12.08168,-11.10662 0.44092,-0.94159 0.93588,-2.56512 1.23957,-4.0454 0.51605,-2.51531 0.0771,-5.28039 -0.18844,-5.97248 -0.21013,-0.54759 -0.49235,1.74692 -1.35352,3.56786 -2.44068,5.16081 -6.69788,10.14363 -10.33984,12.10546 -2.26071,1.21779 -4.58703,1.6869 -10.79297,2.16993 -8.36692,0.65123 -37.07181,1.93281 -44.31055,1.97851 -8.0382,0.0507 -8.08518,0.0387 -13.85742,-3.53125 -4.5592,-2.81973 -8.00825,-6.11354 -9.41406,-8.99023 -0.56269,-1.15145 -2.96595,-8.96602 -5.3418,-17.365236 -2.375854,-8.399225 -3.723999,-14.785861 -3.821209,-15.109502 -0.125779,-0.418729 0.05136,-1.487901 1.449667,-2.133486 1.216182,-0.5615 2.146412,-1.170718 3.051332,-1.963226 2.14478,-1.878364 3.20613,-4.583159 3.58584,-7.737146 0.44146,-3.66694 1.79109,-4.514611 5.24805,-3.294922 2.73604,0.965332 7.07774,3.744767 16.73632,13.019532 11.74913,11.282248 17.51407,14.989592 18.52736,14.989592 0.14291,0 -2.21668,-2.228671 -2.92775,-3.409514 -1.65198,-2.743392 -3.36381,-8.085883 -3.8789,-12.103516 -0.22122,-1.725499 -0.50778,-7.933747 -0.63477,-13.794922 -0.34206,-15.788818 0.45518,-20.778021 4.60742,-28.835937 1.79413,-3.481716 2.53235,-4.474922 5.33203,-7.173828 4.98485,-4.805403 7.49396,-6.019919 17.23438,-8.345703 2.982,-0.712033 6.51415,-1.457031 7.77861,-1.869228 l 2.53049,-0.807914 -0.47512,-1.688093 c -0.10178,-0.864218 -0.47008,-1.991722 -0.81836,-2.505859 -0.33371,-0.492632 -0.98139,-1.323346 -1.9478,-1.871274 -2.92458,-1.658156 -8.29565,-3.088854 -12.91938,-3.714664 -2.03605,-0.2755743 -8.27069,-0.4249458 -14.51758,-0.4394528 z M 94.095703,63.955078 c 0.413562,-0.0068 0.896265,0.01073 1.496094,0.04102 3.205212,0.161858 5.195883,1.245328 6.837893,3.726562 1.31465,1.986581 1.62577,5.549198 0.69726,7.980469 -0.77194,2.021299 -3.385381,4.493651 -5.31445,5.029297 -2.258823,0.627207 -4.273575,0.472528 -6.302734,-0.484375 -2.227923,-1.050636 -3.244326,-2.084337 -4.269532,-4.345703 -1.85362,-4.088658 -0.230816,-8.850774 3.753907,-11.019532 1.248329,-0.679413 1.860876,-0.907326 3.101562,-0.927734 z" />
    <path
       id="path1101"
       style="fill:#9259a3;fill-opacity:1;stroke:#000000;stroke-width:0.874;stroke-miterlimit:4;stroke-dasharray:none;stroke-opacity:1"
       d="m 218.18164,11.740234 c -1.1437,0.0027 -2.46416,0.230505 -5.16406,0.775391 -6.35123,1.281785 -35.02566,8.212004 -37.18946,8.988281 -0.92545,0.332011 -4.37357,1.259156 -7.66406,2.058594 -10.34719,2.513899 -12.88408,3.666047 -17.12695,7.791016 -4.17153,4.055602 -5.409,6.082406 -6.27149,10.261718 -0.79815,3.867642 -0.8779,7.216063 -0.2207,9.394532 l 0.44336,1.46875 0.69727,-2.216797 c 1.03015,-3.273029 3.38323,-8.184327 4.92968,-10.291016 2.51356,-3.424148 6.10883,-5.229254 11.78516,-5.917969 1.73006,-0.20991 13.41011,-1.245148 25.95508,-2.298828 24.73846,-2.077839 27.9748,-2.154275 31.66601,-0.748047 2.09385,0.797686 7.52603,4.250065 11.48047,7.294922 l 2.01758,1.552735 5.91797,18.304687 c 3.25559,10.067946 5.92369,18.613538 5.92969,18.990235 0.006,0.376699 -0.55778,1.38691 -1.25196,2.24414 -1.54242,1.904697 -2.47656,3.690439 -2.47656,4.734375 0,1.076564 -1.63496,2.619141 -2.77539,2.619141 -0.51633,0 -1.50679,0.4997 -2.20117,1.109375 -1.97159,1.731078 -3.03294,1.997733 -5.30273,1.33789 -3.55377,-1.033108 -8.55657,-4.641361 -22.74024,-16.402343 -4.68954,-3.888536 -10.54114,-8.843181 -10.64825,-8.73608 -0.1071,0.107102 2.01347,2.596569 2.35528,3.257564 0.34182,0.660994 1.03554,2.822514 1.54297,4.802734 1.14354,4.462588 1.81804,17.026506 1.49805,27.904296 -0.3209,10.90842 -1.2215,14.43147 -5.46057,19.25962 -0.51387,0.58529 -0.73496,0.94171 -1.43973,1.83599 -0.80606,1.02282 -2.0994,2.58327 -2.68539,3.13968 -3.54767,3.36856 -6.05419,4.71211 -7.78103,5.72535 -1.20187,0.70522 -5.91752,2.36748 -10.16551,4.09255 -4.24799,1.72507 -7.57936,3.17529 -8.50481,3.55375 -1.67884,0.68657 -2.49499,-0.0192 -2.4029,1.71046 0.0883,1.65885 0.62502,4.2765 1.81116,5.49464 1.49462,1.53494 4.06202,1.56462 8.52917,2.68991 5.71514,1.43966 10.93459,2.29599 18.25,2.99219 10.36526,0.98644 16.50024,0.27954 22.55469,-2.5957 5.41582,-2.57197 9.727,-5.63547 21.11523,-15.01172 8.14074,-6.7025 19.4679,-15.32303 24.13672,-18.36914 4.01047,-2.61657 10.8885,-5.68544 18.82812,-8.40234 5.92023,-2.02588 7.10397,-2.12602 37.6211,-3.15821 l 6.77148,-0.22851 0.24024,-8.281253 c 0.50695,-17.588152 1.06369,-47.401148 0.88867,-47.576172 C 325.47294,46.689741 307.21758,45.87077 288.93945,45.244141 268.35976,44.538608 264.43087,44.157953 256.4082,42.083984 248.04544,39.922099 245.80063,38.845156 243.72266,36 c -1.86904,-2.559106 -4.46812,-7.995024 -5.59375,-11.697266 -1.47226,-4.842333 -2.72035,-6.733523 -5.375,-8.148437 -2.74861,-1.464993 -9.18296,-3.634493 -12.44532,-4.195313 -0.81827,-0.140666 -1.44073,-0.220378 -2.12695,-0.21875 z M 251.85938,76.6875 c 0.35979,-0.0068 0.73282,0.0025 1.12304,0.02734 2.87512,0.183074 4.93194,1.365842 6.50196,3.738281 1.40145,2.11774 1.66948,6.195842 0.55078,8.388672 -0.88826,1.741119 -2.43906,3.363125 -3.97657,4.158203 -1.42492,0.736855 -5.24981,0.948076 -6.9414,0.382812 -1.83068,-0.611741 -4.59462,-3.493012 -5.15235,-5.371093 -0.97551,-3.284927 -0.35002,-6.196213 1.84375,-8.576172 1.71502,-1.86057 3.53224,-2.700265 6.05079,-2.748047 z" />
    <path
       id="path1104"
       style="fill:#ca3c32;fill-opacity:1;stroke:#000000;stroke-width:0.874;stroke-miterlimit:4;stroke-dasharray:none;stroke-opacity:1"
       d="m 181.44531,60.228516 c -2.27381,-0.04069 -4.52494,0.328171 -5.99023,1.066406 -2.61643,1.318197 -5.86531,4.716895 -6.73633,7.044922 -1.23646,3.304721 -1.18225,3.532642 2.0625,8.498047 1.07511,1.645242 2.73441,4.438101 3.6875,6.207031 1.48123,2.749137 1.73437,3.525658 1.73437,5.34375 0,2.713891 -0.87493,4.448257 -3.56054,7.070312 -6.48107,6.327716 -16.32461,6.788966 -27.31446,1.277344 -4.33883,-2.176013 -6.29463,-4.223446 -19.13023,-15.803257 -9.86923,-8.903658 -13.85058,-11.522284 -16.46989,-12.013672 -1.76103,-0.330368 -2.06157,0.647805 -2.55427,3.754429 -0.49308,3.109042 -1.40668,5.169461 -3.30012,6.765397 -0.7695,0.648592 -1.66243,1.220469 -2.68511,1.754839 -1.13216,0.591573 -1.909767,0.687834 -2.053754,1.882127 -0.110968,0.92041 8.468804,29.987049 9.230484,31.671859 0.58678,1.29792 1.81635,2.89354 3.45508,4.48633 2.79279,2.71448 8.96735,6.64701 11.64063,7.41406 2.10636,0.60438 11.68245,0.42384 33.29687,-0.63086 26.15527,-1.27628 26.84216,-1.39664 31.34961,-5.44922 6.76862,-6.08558 11.54822,-18.69888 13.09961,-34.570313 0.49554,-5.069667 0.10824,-6.856744 -2.71289,-12.525391 -3.69829,-7.431185 -7.61476,-11.234598 -13.09766,-12.71875 -1.2148,-0.328832 -2.58688,-0.500978 -3.95117,-0.52539 z m -2.54883,44.828124 c 1.07902,0.0517 2.15665,0.30145 3.10743,0.76172 3.10255,1.50191 4.73939,5.18196 3.88671,8.73633 -0.55263,2.3036 -2.81662,4.71546 -5.05664,5.38476 -3.70483,1.10698 -7.47359,-0.43039 -9.16015,-3.73633 -0.62796,-1.23091 -0.75591,-2.03978 -0.64063,-4.08007 0.15862,-2.80713 0.68357,-3.78635 3.05664,-5.70703 1.20782,-0.97757 3.00829,-1.44548 4.80664,-1.35938 z" />
    <path
       id="path1107"
       style="fill:#399746;fill-opacity:1;stroke:#000000;stroke-width:0.874;stroke-miterlimit:4;stroke-dasharray:none;stroke-opacity:1"
       d="m 213.80078,31.46875 c -4.00723,-0.121519 -46.59698,3.207396 -52.09766,4.072266 -4.01883,0.631882 -6.4012,1.745536 -8.68554,4.058593 -3.47573,3.519413 -6.35494,10.439746 -7.09375,17.046875 -0.22996,2.056553 -0.91423,7.901307 -1.52149,12.990235 -1.87985,15.753244 -1.53851,18.758775 2.64454,23.230469 2.39875,2.56427 4.79779,4.049823 7.88085,4.878906 4.0987,1.102203 9.19676,0.481878 12.64258,-1.53711 2.26193,-1.325317 4.79887,-3.939132 5.65821,-5.832031 1.44707,-3.18754 0.76809,-5.240934 -3.19727,-9.685547 -4.18803,-4.694205 -5.01907,-7.518393 -3.59375,-12.210937 0.92246,-3.037008 3.34991,-6.008859 6.61523,-8.097657 2.6728,-1.709768 4.15787,-2.049689 8.94532,-2.048828 9.79437,0.0018 13.66631,1.743007 25.06836,11.273438 9.73578,8.137681 15.08264,12.404197 18.45117,14.724609 3.07383,2.1174 6.52063,3.89985 7.55273,3.90625 0.32615,0.002 1.34311,-0.580752 2.25977,-1.294922 0.91668,-0.714169 2.31524,-1.433069 3.10742,-1.597656 1.3285,-0.276023 1.47353,-0.434934 1.88281,-2.046875 0.24406,-0.961195 0.93503,-2.450462 1.53516,-3.308594 0.60012,-0.858128 1.75456,-2.352792 2.03313,-2.79095 0.45399,-0.714046 -0.53569,-2.240061 -5.77922,-18.480534 -3.21757,-9.965546 -5.88474,-18.149687 -5.92774,-18.185547 -1.8753,-1.563529 -9.43287,-6.542503 -11.46289,-7.552734 -2.62466,-1.306145 -3.0218,-1.393568 -6.91797,-1.511719 z m -44.3418,5.914062 c 2.06637,0.03282 4.12324,0.826051 5.50977,2.3125 3.16267,3.390571 2.44336,9.229409 -1.43359,11.63086 -3.31568,2.053794 -7.15319,1.594936 -9.74024,-1.166016 -3.19987,-3.414978 -2.66955,-8.756475 1.13672,-11.445312 1.30697,-0.923278 2.92017,-1.357558 4.52734,-1.332032 z" />
  </g>
</svg>
