<?xml version="1.0" encoding="UTF-8" standalone="no"?>
<svg
   version="1.1"
   id="svg46"
   width="335.25192"
   height="154.12056"
   viewBox="0 0 335.25192 154.12056"
   sodipodi:docname="couplerlogo2_ink.svg"
   inkscape:version="1.1.1 (c3084ef, 2021-09-22)"
   xmlns:inkscape="http://www.inkscape.org/namespaces/inkscape"
   xmlns:sodipodi="http://sodipodi.sourceforge.net/DTD/sodipodi-0.dtd"
   xmlns="http://www.w3.org/2000/svg"
   xmlns:svg="http://www.w3.org/2000/svg"
   xmlns:rdf="http://www.w3.org/1999/02/22-rdf-syntax-ns#"
   xmlns:cc="http://creativecommons.org/ns#"
   xmlns:dc="http://purl.org/dc/elements/1.1/">
  <metadata
     id="metadata52">
    <rdf:RDF>
      <cc:Work
         rdf:about="">
        <dc:format>image/svg+xml</dc:format>
        <dc:type
           rdf:resource="http://purl.org/dc/dcmitype/StillImage" />
      </cc:Work>
    </rdf:RDF>
  </metadata>
  <defs
     id="defs50">
    <clipPath
       clipPathUnits="userSpaceOnUse"
       id="clipPath60">
      <rect
         style="fill:#0000ff;fill-opacity:0;stroke:#00fb00"
         id="rect62"
         width="335.25192"
         height="154.12056"
         x="57.993816"
         y="5.5610509" />
    </clipPath>
    <clipPath
       clipPathUnits="userSpaceOnUse"
       id="clipPath68">
      <rect
         style="fill:#0000ff;fill-opacity:0;stroke:#00fb00"
         id="rect70"
         width="335.25192"
         height="154.12056"
         x="57.993816"
         y="5.5610509" />
    </clipPath>
    <clipPath
       clipPathUnits="userSpaceOnUse"
       id="clipPath80">
      <rect
         style="fill:#0000ff;fill-opacity:0;stroke:#00fb00"
         id="rect82"
         width="335.25192"
         height="154.12056"
         x="57.993816"
         y="5.5610509" />
    </clipPath>
    <clipPath
       clipPathUnits="userSpaceOnUse"
       id="clipPath80-5">
      <rect
         style="fill:#0000ff;fill-opacity:0;stroke:#00fb00"
         id="rect82-6"
         width="335.25192"
         height="154.12056"
         x="57.993816"
         y="5.5610509" />
    </clipPath>
  </defs>
  <sodipodi:namedview
     pagecolor="#ffffff"
     bordercolor="#666666"
     borderopacity="1"
     objecttolerance="10"
     gridtolerance="10"
     guidetolerance="10"
     inkscape:pageopacity="0"
     inkscape:pageshadow="2"
     inkscape:window-width="1440"
     inkscape:window-height="847"
     id="namedview48"
     showgrid="false"
     fit-margin-top="0"
     fit-margin-left="0"
     fit-margin-right="0"
     fit-margin-bottom="0"
     inkscape:zoom="3.4951637"
     inkscape:cx="146.63119"
     inkscape:cy="79.395424"
     inkscape:window-x="0"
     inkscape:window-y="26"
     inkscape:window-maximized="0"
     inkscape:current-layer="layer1"
     inkscape:pagecheckerboard="0" />
  <g
     inkscape:groupmode="layer"
     id="layer1"
     inkscape:label="trace"
     style="display:inline">
    <path
       style="fill:#4d64ae;fill-opacity:1;stroke:#000000;stroke-width:1.08523;stroke-linecap:butt;stroke-linejoin:miter;stroke-miterlimit:4;stroke-dasharray:none;stroke-opacity:1"
       d="M 116.52985,115.82572 C 99.143776,113.0215 97.741686,101.80469 97.741686,101.80469 l -15.70356,-0.28042 -0.28043,-47.11065 13.7406,-0.841261 12.058094,-14.021024 c 6.3299,-7.360351 21.59238,-12.058083 21.59238,-12.058083 0,0 16.89569,-4.787078 32.31881,3.064701 2.5839,6.014469 -2.53661,2.962112 -12.11445,5.922851 -13.16566,2.407631 -13.47427,16.530719 -13.47427,16.530719 0,0 -0.56084,36.454666 11.72157,39.987433 h 7.29093 c 7.92976,-2e-6 14.35808,6.428331 14.35808,14.358074 0,7.92975 -7.77435,10.15121 -15.70409,10.15121 z"
       id="path6409"
       sodipodi:nodetypes="cccccsccccccscc"
       inkscape:export-filename="/Users/jbmackay/Downloads/path6409.png"
       inkscape:export-xdpi="96"
       inkscape:export-ydpi="96" />
    <path
       style="display:inline;fill:#399746;fill-opacity:1;stroke:#000000;stroke-width:1.08523;stroke-linecap:butt;stroke-linejoin:miter;stroke-miterlimit:4;stroke-dasharray:none;stroke-opacity:1"
       d="m 198.97528,37.007838 c 17.38607,2.804213 18.78817,14.021022 18.78817,14.021022 l 15.70355,0.280423 0.28043,47.110645 -13.7406,0.841268 -12.05809,14.021024 c -6.3299,7.36034 -21.59238,12.05808 -21.59238,12.05808 0,0 -16.89569,4.78708 -32.31881,-3.0647 -2.5839,-6.01446 2.53661,-2.96211 12.11445,-5.92285 13.16566,-2.40763 13.47427,-16.530723 13.47427,-16.530723 0,0 0.56085,-36.454667 -11.72157,-39.98743 h -7.29093 c -7.92976,0 -14.35808,-6.428337 -14.35808,-14.358078 0,-7.929742 7.77435,-10.151203 15.70409,-10.151203 z"
       id="path6409-0"
       sodipodi:nodetypes="cccccsccccccscc"
       inkscape:export-filename="/Users/jbmackay/Downloads/path6409.png"
       inkscape:export-xdpi="96"
       inkscape:export-ydpi="96" />
    <circle
       style="display:inline;fill:#399746;stroke:#000000;stroke-width:1.08523;stroke-miterlimit:4;stroke-dasharray:none;fill-opacity:1"
       id="path1761-7"
       cx="153.82578"
       cy="105.73058"
       r="6.6225252"
       inkscape:export-filename="/Users/jbmackay/Downloads/path6409.png"
       inkscape:export-xdpi="96"
       inkscape:export-ydpi="96" />
    <circle
       style="display:inline;fill:#4d64ae;stroke:#000000;stroke-width:1.08523;stroke-miterlimit:4;stroke-dasharray:none;fill-opacity:1"
       id="path1761-7-9"
       cx="166.72513"
       cy="46.842266"
       r="6.6225252"
       inkscape:export-filename="/Users/jbmackay/Downloads/path6409.png"
       inkscape:export-xdpi="96"
       inkscape:export-ydpi="96" />
    <ellipse
       style="display:inline;fill:#ffffff;stroke:#000000;stroke-width:1.08523;stroke-miterlimit:4;stroke-dasharray:none"
       id="path1761-7-9-4-0"
       cx="164.76219"
       cy="69.556328"
       rx="4.0312581"
       ry="4.0306816"
       inkscape:export-filename="/Users/jbmackay/Downloads/path6409.png"
       inkscape:export-xdpi="96"
       inkscape:export-ydpi="96" />
    <ellipse
       style="display:inline;fill:#ffffff;stroke:#000000;stroke-width:1.08523;stroke-miterlimit:4;stroke-dasharray:none"
       id="path1761-7-9-4-0-4"
       cx="153.26492"
       cy="83.85778"
       rx="4.0312581"
       ry="4.0306816"
       inkscape:export-filename="/Users/jbmackay/Downloads/path6409.png"
       inkscape:export-xdpi="96"
       inkscape:export-ydpi="96" />
    <path
       style="fill:none;stroke:#000000;stroke-width:1.08523;stroke-linecap:butt;stroke-linejoin:miter;stroke-miterlimit:4;stroke-dasharray:none;stroke-opacity:1"
       d="m 159.24835,60.198565 c -3.17587,1.531208 -5.77764,4.477747 -4.09115,10.871304 2.27141,4.542815 3.99892,7.997854 5.93088,11.861791 1.89963,4.924756 -0.68745,8.120254 -3.24384,10.445674"
       id="path14680"
       sodipodi:nodetypes="cccc"
       inkscape:export-filename="/Users/jbmackay/Downloads/path6409.png"
       inkscape:export-xdpi="96"
       inkscape:export-ydpi="96" />
    <path
       style="fill:#399746;fill-opacity:1;stroke:#000000;stroke-width:0.651136;stroke-miterlimit:4;stroke-dasharray:none"
       d="m 146.6464,91.851932 c -5.64103,-2.981448 -9.38654,-15.773572 -9.97854,-34.079856 -0.14527,-4.492431 -0.0951,-5.687692 0.31802,-7.571353 1.40495,-6.406401 5.3259,-10.980177 10.78843,-12.584633 0.83595,-0.245534 6.3532,-1.922582 6.43406,-1.841728 0.0809,0.08086 -5.08062,2.068893 -5.64343,2.532815 -1.37405,1.132597 -2.73806,3.958633 -2.92945,6.069396 -0.59646,6.577858 3.99928,13.459321 10.25333,15.352895 l 1.7373,0.526012 -0.99846,0.823015 c -0.54914,0.452658 -1.34113,1.472742 -1.75995,2.26685 -0.68355,1.296025 -0.76152,2.296067 -0.76152,4.290207 v 2.425737 l 3.33133,7.108559 c 2.86537,6.114261 3.34462,6.865554 3.46942,8.532978 0.16443,2.197254 -0.40245,3.743681 -2.03463,5.55031 l -1.0457,1.157463 -5.08504,-0.01244 c -4.44367,-0.01085 -5.21245,-0.07973 -6.09517,-0.546273 z"
       id="path44303"
       sodipodi:nodetypes="cssssssscssccssscscc"
       inkscape:export-filename="/Users/jbmackay/Downloads/path6409.png"
       inkscape:export-xdpi="96"
       inkscape:export-ydpi="96" />
    <path
       style="fill:#4d64ae;fill-opacity:1;stroke:#000000;stroke-width:0.651136;stroke-miterlimit:4;stroke-dasharray:none"
       d="m 164.48176,115.65269 c 0,-0.0952 2.05951,-0.81517 2.69166,-1.42864 5.63629,-5.46984 2.08686,-17.080821 -6.32361,-20.685975 -0.70147,-0.300686 -3.00557,-0.160741 -1.27542,-0.726505 0.0941,-0.03073 0.32151,-0.561887 0.71446,-1.028879 1.52796,-1.815869 1.93681,-2.990142 1.9434,-5.581513 l 0.006,-2.423744 -3.32742,-6.689921 c -3.2754,-6.585326 -3.32972,-6.725907 -3.47393,-8.991392 -0.13384,-2.102393 -0.0799,-2.437682 0.62394,-3.8762 0.50843,-1.039223 1.16531,-1.852186 1.93161,-2.390627 0.63864,-0.448741 1.31358,-0.944311 1.49986,-1.101264 0.19465,-0.163999 2.01818,-0.285368 4.28759,-0.285368 4.65468,0 5.29205,0.22273 7.47628,2.612628 4.28767,4.6914 7.07624,16.474562 7.57914,32.025897 0.20288,6.273623 -0.12994,8.406673 -1.88387,12.075213 -1.87733,3.92649 -5.0752,6.78988 -8.90379,7.9724 -2.01636,0.6228 -6.37025,2.1665 -6.37025,1.92599 z"
       id="path46758"
       sodipodi:nodetypes="ccsssccsssssssssscc"
       inkscape:export-filename="/Users/jbmackay/Downloads/path6409.png"
       inkscape:export-xdpi="96"
       inkscape:export-ydpi="96" />
  </g>
</svg>
